<mxfile host="Electron" agent="Mozilla/5.0 (Windows NT 10.0; Win64; x64) AppleWebKit/537.36 (KHTML, like Gecko) draw.io/28.2.8 Chrome/140.0.7339.240 Electron/38.4.0 Safari/537.36" version="28.2.8" pages="3">
  <diagram name="Diagrama de Arquitectura" id="3KUNFPtUSnPu8Mj8s7LA">
    <mxGraphModel dx="1412" dy="827" grid="1" gridSize="10" guides="1" tooltips="1" connect="1" arrows="1" fold="1" page="1" pageScale="1" pageWidth="1169" pageHeight="827" math="0" shadow="0">
      <root>
        <mxCell id="0" />
        <mxCell id="1" parent="0" />
        <mxCell id="rup40rq6IR0TbMBA-KFH-26" value="" style="rounded=0;whiteSpace=wrap;html=1;" vertex="1" parent="1">
          <mxGeometry x="260" y="90" width="550" height="550" as="geometry" />
        </mxCell>
        <mxCell id="rup40rq6IR0TbMBA-KFH-1" value="Docker Container" style="swimlane;whiteSpace=wrap;html=1;fillColor=#fff2cc;strokeColor=#d6b656;" vertex="1" parent="1">
          <mxGeometry x="300" y="270" width="470" height="340" as="geometry" />
        </mxCell>
        <mxCell id="rup40rq6IR0TbMBA-KFH-11" style="edgeStyle=orthogonalEdgeStyle;rounded=0;orthogonalLoop=1;jettySize=auto;html=1;entryX=0.5;entryY=0;entryDx=0;entryDy=0;exitX=1;exitY=0.5;exitDx=0;exitDy=0;" edge="1" parent="rup40rq6IR0TbMBA-KFH-1" source="rup40rq6IR0TbMBA-KFH-4" target="rup40rq6IR0TbMBA-KFH-9">
          <mxGeometry relative="1" as="geometry" />
        </mxCell>
        <mxCell id="rup40rq6IR0TbMBA-KFH-14" value="REST API / JSON" style="edgeLabel;html=1;align=center;verticalAlign=middle;resizable=0;points=[];" vertex="1" connectable="0" parent="rup40rq6IR0TbMBA-KFH-11">
          <mxGeometry x="-0.4435" y="3" relative="1" as="geometry">
            <mxPoint x="39" y="3" as="offset" />
          </mxGeometry>
        </mxCell>
        <mxCell id="rup40rq6IR0TbMBA-KFH-12" style="edgeStyle=orthogonalEdgeStyle;rounded=0;orthogonalLoop=1;jettySize=auto;html=1;exitX=0.07;exitY=0.48;exitDx=0;exitDy=0;exitPerimeter=0;entryX=0.5;entryY=0;entryDx=0;entryDy=0;" edge="1" parent="rup40rq6IR0TbMBA-KFH-1" source="rup40rq6IR0TbMBA-KFH-4" target="rup40rq6IR0TbMBA-KFH-7">
          <mxGeometry relative="1" as="geometry">
            <mxPoint x="110" y="110" as="targetPoint" />
            <Array as="points">
              <mxPoint x="110" y="74" />
            </Array>
          </mxGeometry>
        </mxCell>
        <mxCell id="rup40rq6IR0TbMBA-KFH-13" value="REST API / JSON" style="edgeLabel;html=1;align=center;verticalAlign=middle;resizable=0;points=[];" vertex="1" connectable="0" parent="rup40rq6IR0TbMBA-KFH-12">
          <mxGeometry x="-0.0897" y="1" relative="1" as="geometry">
            <mxPoint x="-20" as="offset" />
          </mxGeometry>
        </mxCell>
        <mxCell id="rup40rq6IR0TbMBA-KFH-4" value="App&lt;br&gt;Angular" style="shape=module;align=left;spacingLeft=20;align=center;verticalAlign=top;whiteSpace=wrap;html=1;fillColor=#dae8fc;strokeColor=#6c8ebf;" vertex="1" parent="rup40rq6IR0TbMBA-KFH-1">
          <mxGeometry x="180" y="50" width="100" height="50" as="geometry" />
        </mxCell>
        <mxCell id="rup40rq6IR0TbMBA-KFH-16" style="edgeStyle=orthogonalEdgeStyle;rounded=0;orthogonalLoop=1;jettySize=auto;html=1;entryX=0;entryY=0.5;entryDx=0;entryDy=0;startArrow=classic;startFill=1;" edge="1" parent="rup40rq6IR0TbMBA-KFH-1" source="rup40rq6IR0TbMBA-KFH-7" target="rup40rq6IR0TbMBA-KFH-9">
          <mxGeometry relative="1" as="geometry" />
        </mxCell>
        <mxCell id="rup40rq6IR0TbMBA-KFH-20" style="edgeStyle=orthogonalEdgeStyle;rounded=0;orthogonalLoop=1;jettySize=auto;html=1;entryX=0;entryY=0.7;entryDx=0;entryDy=0;" edge="1" parent="rup40rq6IR0TbMBA-KFH-1" source="rup40rq6IR0TbMBA-KFH-7" target="rup40rq6IR0TbMBA-KFH-18">
          <mxGeometry relative="1" as="geometry" />
        </mxCell>
        <mxCell id="rup40rq6IR0TbMBA-KFH-21" value="JPA / SQL" style="edgeLabel;html=1;align=center;verticalAlign=middle;resizable=0;points=[];" vertex="1" connectable="0" parent="rup40rq6IR0TbMBA-KFH-20">
          <mxGeometry x="-0.5879" y="-1" relative="1" as="geometry">
            <mxPoint as="offset" />
          </mxGeometry>
        </mxCell>
        <mxCell id="rup40rq6IR0TbMBA-KFH-7" value="&lt;p style=&quot;margin:0px;margin-top:6px;text-align:center;&quot;&gt;Products Service&lt;br&gt;Spring Boot&lt;/p&gt;&lt;hr size=&quot;1&quot; style=&quot;border-style:solid;&quot;&gt;&lt;p style=&quot;margin:0px;margin-left:8px;&quot;&gt;&lt;br&gt;&lt;/p&gt;" style="align=left;overflow=fill;html=1;dropTarget=0;whiteSpace=wrap;" vertex="1" parent="rup40rq6IR0TbMBA-KFH-1">
          <mxGeometry x="30" y="130" width="160" height="50" as="geometry" />
        </mxCell>
        <mxCell id="rup40rq6IR0TbMBA-KFH-8" value="" style="shape=component;jettyWidth=8;jettyHeight=4;fillColor=#d5e8d4;strokeColor=#82b366;" vertex="1" parent="rup40rq6IR0TbMBA-KFH-7">
          <mxGeometry x="1" width="20" height="20" relative="1" as="geometry">
            <mxPoint x="-24" y="4" as="offset" />
          </mxGeometry>
        </mxCell>
        <mxCell id="rup40rq6IR0TbMBA-KFH-19" style="edgeStyle=orthogonalEdgeStyle;rounded=0;orthogonalLoop=1;jettySize=auto;html=1;entryX=1;entryY=0.7;entryDx=0;entryDy=0;" edge="1" parent="rup40rq6IR0TbMBA-KFH-1" source="rup40rq6IR0TbMBA-KFH-9" target="rup40rq6IR0TbMBA-KFH-18">
          <mxGeometry relative="1" as="geometry" />
        </mxCell>
        <mxCell id="rup40rq6IR0TbMBA-KFH-22" value="JPA / SQL" style="edgeLabel;html=1;align=center;verticalAlign=middle;resizable=0;points=[];" vertex="1" connectable="0" parent="rup40rq6IR0TbMBA-KFH-19">
          <mxGeometry x="-0.6" y="-3" relative="1" as="geometry">
            <mxPoint as="offset" />
          </mxGeometry>
        </mxCell>
        <mxCell id="rup40rq6IR0TbMBA-KFH-9" value="&lt;p style=&quot;margin:0px;margin-top:6px;text-align:center;&quot;&gt;Inventory Service&lt;br&gt;Spring Boot&lt;b&gt;&lt;/b&gt;&lt;/p&gt;&lt;hr size=&quot;1&quot; style=&quot;border-style:solid;&quot;&gt;&lt;p style=&quot;margin:0px;margin-left:8px;&quot;&gt;&lt;br&gt;&lt;/p&gt;" style="align=left;overflow=fill;html=1;dropTarget=0;whiteSpace=wrap;" vertex="1" parent="rup40rq6IR0TbMBA-KFH-1">
          <mxGeometry x="280" y="130" width="160" height="50" as="geometry" />
        </mxCell>
        <mxCell id="rup40rq6IR0TbMBA-KFH-10" value="" style="shape=component;jettyWidth=8;jettyHeight=4;fillColor=#d5e8d4;strokeColor=#82b366;" vertex="1" parent="rup40rq6IR0TbMBA-KFH-9">
          <mxGeometry x="1" width="20" height="20" relative="1" as="geometry">
            <mxPoint x="-24" y="4" as="offset" />
          </mxGeometry>
        </mxCell>
        <mxCell id="rup40rq6IR0TbMBA-KFH-18" value="PostgreSQL" style="shape=datastore;html=1;labelPosition=center;verticalLabelPosition=bottom;align=center;verticalAlign=top;fillColor=#f5f5f5;fontColor=#333333;strokeColor=#666666;" vertex="1" parent="rup40rq6IR0TbMBA-KFH-1">
          <mxGeometry x="180" y="200" width="100" height="100" as="geometry" />
        </mxCell>
        <mxCell id="rup40rq6IR0TbMBA-KFH-5" style="edgeStyle=orthogonalEdgeStyle;rounded=0;orthogonalLoop=1;jettySize=auto;html=1;" edge="1" parent="1" source="rup40rq6IR0TbMBA-KFH-2" target="rup40rq6IR0TbMBA-KFH-4">
          <mxGeometry relative="1" as="geometry" />
        </mxCell>
        <mxCell id="rup40rq6IR0TbMBA-KFH-15" value="HTTPS" style="edgeLabel;html=1;align=center;verticalAlign=middle;resizable=0;points=[];" vertex="1" connectable="0" parent="rup40rq6IR0TbMBA-KFH-5">
          <mxGeometry x="-0.5088" relative="1" as="geometry">
            <mxPoint as="offset" />
          </mxGeometry>
        </mxCell>
        <mxCell id="rup40rq6IR0TbMBA-KFH-23" value="" style="group" vertex="1" connectable="0" parent="1">
          <mxGeometry x="485" y="110" width="90" height="90" as="geometry" />
        </mxCell>
        <mxCell id="rup40rq6IR0TbMBA-KFH-2" value="" style="shape=actor;whiteSpace=wrap;html=1;" vertex="1" parent="rup40rq6IR0TbMBA-KFH-23">
          <mxGeometry x="25" y="30" width="40" height="60" as="geometry" />
        </mxCell>
        <mxCell id="rup40rq6IR0TbMBA-KFH-3" value="Usuario / Navegador Web" style="text;html=1;whiteSpace=wrap;strokeColor=none;fillColor=none;align=center;verticalAlign=middle;rounded=0;" vertex="1" parent="rup40rq6IR0TbMBA-KFH-23">
          <mxGeometry width="90" height="30" as="geometry" />
        </mxCell>
      </root>
    </mxGraphModel>
  </diagram>
  <diagram id="jSv66fcowh5pQTnU0vOf" name="Diagrama arquitectura backend">
    <mxGraphModel dx="1412" dy="827" grid="1" gridSize="10" guides="1" tooltips="1" connect="1" arrows="1" fold="1" page="1" pageScale="1" pageWidth="1169" pageHeight="827" math="0" shadow="0">
      <root>
        <mxCell id="0" />
        <mxCell id="1" parent="0" />
        <mxCell id="UmeelCapYGlWGLVjLqa7-38" value="" style="rounded=0;whiteSpace=wrap;html=1;" vertex="1" parent="1">
          <mxGeometry x="70" y="140" width="1060" height="460" as="geometry" />
        </mxCell>
        <mxCell id="UmeelCapYGlWGLVjLqa7-4" value="Application" style="shape=folder;fontStyle=1;tabWidth=110;tabHeight=30;tabPosition=left;html=1;boundedLbl=1;labelInHeader=1;container=1;collapsible=0;whiteSpace=wrap;fillColor=#dae8fc;strokeColor=#6c8ebf;" vertex="1" parent="1">
          <mxGeometry x="100" y="170" width="320" height="190" as="geometry" />
        </mxCell>
        <mxCell id="UmeelCapYGlWGLVjLqa7-5" value="" style="html=1;strokeColor=none;resizeWidth=1;resizeHeight=1;fillColor=none;part=1;connectable=0;allowArrows=0;deletable=0;whiteSpace=wrap;" vertex="1" parent="UmeelCapYGlWGLVjLqa7-4">
          <mxGeometry width="320" height="133" relative="1" as="geometry">
            <mxPoint y="30" as="offset" />
          </mxGeometry>
        </mxCell>
        <mxCell id="UmeelCapYGlWGLVjLqa7-33" style="edgeStyle=orthogonalEdgeStyle;rounded=0;orthogonalLoop=1;jettySize=auto;html=1;entryX=0.5;entryY=0;entryDx=0;entryDy=0;curved=1;" edge="1" parent="UmeelCapYGlWGLVjLqa7-4" source="UmeelCapYGlWGLVjLqa7-8" target="UmeelCapYGlWGLVjLqa7-11">
          <mxGeometry relative="1" as="geometry" />
        </mxCell>
        <mxCell id="UmeelCapYGlWGLVjLqa7-8" value="«component»&lt;br&gt;&lt;b&gt;Service / Casos de Uso&lt;/b&gt;" style="html=1;dropTarget=0;whiteSpace=wrap;" vertex="1" parent="UmeelCapYGlWGLVjLqa7-4">
          <mxGeometry x="100" y="40" width="150" height="54.76" as="geometry" />
        </mxCell>
        <mxCell id="UmeelCapYGlWGLVjLqa7-9" value="" style="shape=module;jettyWidth=8;jettyHeight=4;" vertex="1" parent="UmeelCapYGlWGLVjLqa7-8">
          <mxGeometry x="1" width="20" height="20" relative="1" as="geometry">
            <mxPoint x="-27" y="7" as="offset" />
          </mxGeometry>
        </mxCell>
        <mxCell id="UmeelCapYGlWGLVjLqa7-11" value="«interface»&lt;br&gt;&lt;b&gt;Puertos&lt;/b&gt;" style="html=1;whiteSpace=wrap;" vertex="1" parent="UmeelCapYGlWGLVjLqa7-4">
          <mxGeometry x="190" y="140.00142857142856" width="110" height="45.23809523809524" as="geometry" />
        </mxCell>
        <mxCell id="UmeelCapYGlWGLVjLqa7-12" value="&amp;lt;&amp;lt;artifact&amp;gt;&amp;gt;&lt;br&gt;&lt;br&gt;&lt;b&gt;DTOs&lt;/b&gt;" style="html=1;align=center;verticalAlign=middle;dashed=0;whiteSpace=wrap;" vertex="1" parent="UmeelCapYGlWGLVjLqa7-4">
          <mxGeometry x="10" y="140.00142857142856" width="120" height="45.23809523809524" as="geometry" />
        </mxCell>
        <mxCell id="UmeelCapYGlWGLVjLqa7-15" value="Domain" style="shape=folder;fontStyle=1;tabWidth=110;tabHeight=30;tabPosition=left;html=1;boundedLbl=1;labelInHeader=1;container=1;collapsible=0;whiteSpace=wrap;fillColor=#f5f5f5;fontColor=#333333;strokeColor=#666666;" vertex="1" parent="1">
          <mxGeometry x="330" y="450" width="440" height="120" as="geometry" />
        </mxCell>
        <mxCell id="UmeelCapYGlWGLVjLqa7-16" value="" style="html=1;strokeColor=none;resizeWidth=1;resizeHeight=1;fillColor=none;part=1;connectable=0;allowArrows=0;deletable=0;whiteSpace=wrap;" vertex="1" parent="UmeelCapYGlWGLVjLqa7-15">
          <mxGeometry width="440" height="83.99999999999999" relative="1" as="geometry">
            <mxPoint y="30" as="offset" />
          </mxGeometry>
        </mxCell>
        <mxCell id="UmeelCapYGlWGLVjLqa7-18" value="Entidades de dominio (model)" style="html=1;whiteSpace=wrap;movable=1;resizable=1;rotatable=1;deletable=1;editable=1;locked=0;connectable=1;fontStyle=1" vertex="1" parent="UmeelCapYGlWGLVjLqa7-15">
          <mxGeometry x="30" y="50" width="104" height="50" as="geometry" />
        </mxCell>
        <mxCell id="UmeelCapYGlWGLVjLqa7-19" value="«interface»&lt;br&gt;&lt;b&gt;Repositorios&lt;/b&gt;" style="html=1;whiteSpace=wrap;movable=1;resizable=1;rotatable=1;deletable=1;editable=1;locked=0;connectable=1;" vertex="1" parent="UmeelCapYGlWGLVjLqa7-15">
          <mxGeometry x="170" y="50" width="102" height="50" as="geometry" />
        </mxCell>
        <mxCell id="UmeelCapYGlWGLVjLqa7-31" value="Eventos de domino (event)" style="html=1;whiteSpace=wrap;movable=1;resizable=1;rotatable=1;deletable=1;editable=1;locked=0;connectable=1;fontStyle=1" vertex="1" parent="UmeelCapYGlWGLVjLqa7-15">
          <mxGeometry x="310" y="50" width="104" height="50" as="geometry" />
        </mxCell>
        <mxCell id="UmeelCapYGlWGLVjLqa7-22" value="Infrastructure " style="shape=folder;fontStyle=1;tabWidth=110;tabHeight=30;tabPosition=left;html=1;boundedLbl=1;labelInHeader=1;container=1;collapsible=0;whiteSpace=wrap;fillColor=#ffe6cc;strokeColor=#d79b00;" vertex="1" parent="1">
          <mxGeometry x="570" y="175" width="510" height="195" as="geometry" />
        </mxCell>
        <mxCell id="UmeelCapYGlWGLVjLqa7-23" value="" style="html=1;strokeColor=none;resizeWidth=1;resizeHeight=1;fillColor=none;part=1;connectable=0;allowArrows=0;deletable=0;whiteSpace=wrap;" vertex="1" parent="UmeelCapYGlWGLVjLqa7-22">
          <mxGeometry width="510" height="173.33" relative="1" as="geometry">
            <mxPoint y="30" as="offset" />
          </mxGeometry>
        </mxCell>
        <mxCell id="UmeelCapYGlWGLVjLqa7-24" value="«component»&lt;br&gt;&lt;b&gt;Controller REST&lt;/b&gt;" style="html=1;dropTarget=0;whiteSpace=wrap;movable=1;resizable=1;rotatable=1;deletable=1;editable=1;locked=0;connectable=1;" vertex="1" parent="UmeelCapYGlWGLVjLqa7-22">
          <mxGeometry x="190" y="35" width="150" height="54.76" as="geometry" />
        </mxCell>
        <mxCell id="UmeelCapYGlWGLVjLqa7-25" value="" style="shape=module;jettyWidth=8;jettyHeight=4;" vertex="1" parent="UmeelCapYGlWGLVjLqa7-24">
          <mxGeometry x="1" width="20" height="20" relative="1" as="geometry">
            <mxPoint x="-27" y="7" as="offset" />
          </mxGeometry>
        </mxCell>
        <mxCell id="UmeelCapYGlWGLVjLqa7-26" value="«component»&lt;br&gt;&lt;b&gt;Adaptador de persistencia JPA&lt;/b&gt;" style="html=1;dropTarget=0;whiteSpace=wrap;movable=1;resizable=1;rotatable=1;deletable=1;editable=1;locked=0;connectable=1;" vertex="1" parent="UmeelCapYGlWGLVjLqa7-22">
          <mxGeometry x="20" y="120" width="140" height="54.76" as="geometry" />
        </mxCell>
        <mxCell id="UmeelCapYGlWGLVjLqa7-27" value="" style="shape=module;jettyWidth=8;jettyHeight=4;" vertex="1" parent="UmeelCapYGlWGLVjLqa7-26">
          <mxGeometry x="1" width="20" height="20" relative="1" as="geometry">
            <mxPoint x="-27" y="7" as="offset" />
          </mxGeometry>
        </mxCell>
        <mxCell id="UmeelCapYGlWGLVjLqa7-28" value="«component»&lt;br&gt;&lt;b&gt;Adaptador de Integración&lt;/b&gt;" style="html=1;dropTarget=0;whiteSpace=wrap;movable=1;resizable=1;rotatable=1;deletable=1;editable=1;locked=0;connectable=1;" vertex="1" parent="UmeelCapYGlWGLVjLqa7-22">
          <mxGeometry x="180" y="120" width="170" height="54.76" as="geometry" />
        </mxCell>
        <mxCell id="UmeelCapYGlWGLVjLqa7-29" value="" style="shape=module;jettyWidth=8;jettyHeight=4;" vertex="1" parent="UmeelCapYGlWGLVjLqa7-28">
          <mxGeometry x="1" width="20" height="20" relative="1" as="geometry">
            <mxPoint x="-27" y="7" as="offset" />
          </mxGeometry>
        </mxCell>
        <mxCell id="UmeelCapYGlWGLVjLqa7-30" value="&amp;lt;&amp;lt;artifact&amp;gt;&amp;gt;&lt;br&gt;&lt;br&gt;&lt;b&gt;Configuraciones&lt;/b&gt;" style="html=1;align=center;verticalAlign=middle;dashed=0;whiteSpace=wrap;" vertex="1" parent="UmeelCapYGlWGLVjLqa7-22">
          <mxGeometry x="370" y="119.76" width="120" height="55" as="geometry" />
        </mxCell>
        <mxCell id="UmeelCapYGlWGLVjLqa7-32" style="edgeStyle=orthogonalEdgeStyle;rounded=0;orthogonalLoop=1;jettySize=auto;html=1;entryX=1;entryY=0.5;entryDx=0;entryDy=0;curved=1;" edge="1" parent="1" source="UmeelCapYGlWGLVjLqa7-24" target="UmeelCapYGlWGLVjLqa7-8">
          <mxGeometry relative="1" as="geometry" />
        </mxCell>
        <mxCell id="UmeelCapYGlWGLVjLqa7-34" style="edgeStyle=orthogonalEdgeStyle;rounded=0;orthogonalLoop=1;jettySize=auto;html=1;entryX=0;entryY=0.5;entryDx=0;entryDy=0;curved=1;" edge="1" parent="1" target="UmeelCapYGlWGLVjLqa7-18">
          <mxGeometry relative="1" as="geometry">
            <mxPoint x="250" y="267" as="sourcePoint" />
            <Array as="points">
              <mxPoint x="250" y="525" />
            </Array>
          </mxGeometry>
        </mxCell>
        <mxCell id="UmeelCapYGlWGLVjLqa7-35" style="edgeStyle=entityRelationEdgeStyle;rounded=0;orthogonalLoop=1;jettySize=auto;html=1;" edge="1" parent="1" source="UmeelCapYGlWGLVjLqa7-11" target="UmeelCapYGlWGLVjLqa7-26">
          <mxGeometry relative="1" as="geometry" />
        </mxCell>
        <mxCell id="UmeelCapYGlWGLVjLqa7-36" style="edgeStyle=orthogonalEdgeStyle;rounded=0;orthogonalLoop=1;jettySize=auto;html=1;entryX=0.5;entryY=1;entryDx=0;entryDy=0;exitX=0.5;exitY=1;exitDx=0;exitDy=0;curved=1;" edge="1" parent="1" source="UmeelCapYGlWGLVjLqa7-11" target="UmeelCapYGlWGLVjLqa7-28">
          <mxGeometry relative="1" as="geometry">
            <mxPoint x="350" y="385.4795238095237" as="sourcePoint" />
            <mxPoint x="840" y="380" as="targetPoint" />
            <Array as="points">
              <mxPoint x="345" y="410" />
              <mxPoint x="835" y="410" />
            </Array>
          </mxGeometry>
        </mxCell>
        <mxCell id="UmeelCapYGlWGLVjLqa7-37" style="edgeStyle=orthogonalEdgeStyle;rounded=0;orthogonalLoop=1;jettySize=auto;html=1;curved=1;exitX=0.5;exitY=1;exitDx=0;exitDy=0;entryX=1;entryY=0;entryDx=0;entryDy=0;" edge="1" parent="1" source="UmeelCapYGlWGLVjLqa7-26" target="UmeelCapYGlWGLVjLqa7-18">
          <mxGeometry relative="1" as="geometry" />
        </mxCell>
      </root>
    </mxGraphModel>
  </diagram>
  <diagram id="m-mR02ytrz4eoseHgLo_" name="Diagrama de despliege">
    <mxGraphModel dx="1412" dy="827" grid="1" gridSize="10" guides="1" tooltips="1" connect="1" arrows="1" fold="1" page="1" pageScale="1" pageWidth="1169" pageHeight="827" math="0" shadow="0">
      <root>
        <mxCell id="0" />
        <mxCell id="1" parent="0" />
        <mxCell id="EUlrfBxwxJydkilM9NxZ-34" value="" style="rounded=0;whiteSpace=wrap;html=1;" vertex="1" parent="1">
          <mxGeometry x="150" y="20" width="700" height="460" as="geometry" />
        </mxCell>
        <mxCell id="EUlrfBxwxJydkilM9NxZ-1" value="Docker" style="shape=umlFrame;whiteSpace=wrap;html=1;pointerEvents=0;dashed=1;fillColor=#f5f5f5;strokeColor=#666666;fontColor=#333333;" vertex="1" parent="1">
          <mxGeometry x="170" y="40" width="660" height="420" as="geometry" />
        </mxCell>
        <mxCell id="EUlrfBxwxJydkilM9NxZ-14" value="" style="group;fillColor=#dae8fc;strokeColor=#6c8ebf;" vertex="1" connectable="0" parent="1">
          <mxGeometry x="190" y="90" width="150" height="110" as="geometry" />
        </mxCell>
        <mxCell id="EUlrfBxwxJydkilM9NxZ-12" value="&lt;i&gt;&amp;lt;&amp;lt; Frontend&amp;gt;&amp;gt;&lt;/i&gt;&lt;div&gt;Angular&lt;/div&gt;" style="verticalAlign=top;align=center;shape=cube;size=10;direction=south;html=1;boundedLbl=1;spacingLeft=5;whiteSpace=wrap;" vertex="1" parent="EUlrfBxwxJydkilM9NxZ-14">
          <mxGeometry width="150" height="110" as="geometry" />
        </mxCell>
        <mxCell id="EUlrfBxwxJydkilM9NxZ-13" value="&amp;lt;&amp;lt;host: 4200&amp;gt;&amp;gt;" style="html=1;align=center;verticalAlign=middle;dashed=0;whiteSpace=wrap;rounded=1;" vertex="1" parent="EUlrfBxwxJydkilM9NxZ-14">
          <mxGeometry x="19" y="51" width="110" height="50" as="geometry" />
        </mxCell>
        <mxCell id="EUlrfBxwxJydkilM9NxZ-18" value="" style="group" vertex="1" connectable="0" parent="1">
          <mxGeometry x="290" y="294" width="180" height="120" as="geometry" />
        </mxCell>
        <mxCell id="EUlrfBxwxJydkilM9NxZ-16" value="&lt;i&gt;&amp;lt;&amp;lt; API REST&amp;gt;&amp;gt;&lt;/i&gt;&lt;div&gt;&lt;b&gt;inventory-service&lt;/b&gt;&lt;/div&gt;" style="verticalAlign=top;align=center;shape=cube;size=10;direction=south;html=1;boundedLbl=1;spacingLeft=5;whiteSpace=wrap;movable=1;resizable=1;rotatable=1;deletable=1;editable=1;locked=0;connectable=1;" vertex="1" parent="EUlrfBxwxJydkilM9NxZ-18">
          <mxGeometry width="180" height="120" as="geometry" />
        </mxCell>
        <mxCell id="EUlrfBxwxJydkilM9NxZ-17" value="&amp;lt;&amp;lt;host: 8081&amp;gt;&amp;gt;" style="html=1;align=center;verticalAlign=middle;dashed=0;whiteSpace=wrap;rounded=1;movable=1;resizable=1;rotatable=1;deletable=1;editable=1;locked=0;connectable=1;" vertex="1" parent="EUlrfBxwxJydkilM9NxZ-18">
          <mxGeometry x="35" y="60" width="110" height="50" as="geometry" />
        </mxCell>
        <mxCell id="EUlrfBxwxJydkilM9NxZ-19" value="" style="group" vertex="1" connectable="0" parent="1">
          <mxGeometry x="620" y="85" width="180" height="120" as="geometry" />
        </mxCell>
        <mxCell id="EUlrfBxwxJydkilM9NxZ-31" value="" style="group" vertex="1" connectable="0" parent="EUlrfBxwxJydkilM9NxZ-19">
          <mxGeometry width="180" height="120" as="geometry" />
        </mxCell>
        <mxCell id="EUlrfBxwxJydkilM9NxZ-20" value="&lt;i&gt;&amp;lt;&amp;lt; API REST&amp;gt;&amp;gt;&lt;/i&gt;&lt;div&gt;&lt;b&gt;products-service&lt;/b&gt;&lt;/div&gt;&lt;div&gt;&lt;b&gt;&lt;br&gt;&lt;/b&gt;&lt;/div&gt;" style="verticalAlign=top;align=center;shape=cube;size=10;direction=south;html=1;boundedLbl=1;spacingLeft=5;whiteSpace=wrap;movable=1;resizable=1;rotatable=1;deletable=1;editable=1;locked=0;connectable=1;" vertex="1" parent="EUlrfBxwxJydkilM9NxZ-31">
          <mxGeometry width="180" height="120" as="geometry" />
        </mxCell>
        <mxCell id="EUlrfBxwxJydkilM9NxZ-21" value="&amp;lt;&amp;lt;host: 8080&amp;gt;&amp;gt;" style="html=1;align=center;verticalAlign=middle;dashed=0;whiteSpace=wrap;rounded=1;movable=1;resizable=1;rotatable=1;deletable=1;editable=1;locked=0;connectable=1;" vertex="1" parent="EUlrfBxwxJydkilM9NxZ-31">
          <mxGeometry x="35" y="60" width="110" height="50" as="geometry" />
        </mxCell>
        <mxCell id="EUlrfBxwxJydkilM9NxZ-22" value="" style="group" vertex="1" connectable="0" parent="1">
          <mxGeometry x="610" y="288" width="180" height="120" as="geometry" />
        </mxCell>
        <mxCell id="EUlrfBxwxJydkilM9NxZ-23" value="&lt;i&gt;&amp;lt;&amp;lt; Servicio DB&amp;gt;&amp;gt;&lt;/i&gt;&lt;div&gt;&lt;b&gt;PostgreSQL&lt;/b&gt;&lt;/div&gt;" style="verticalAlign=top;align=center;shape=cube;size=10;direction=south;html=1;boundedLbl=1;spacingLeft=5;whiteSpace=wrap;movable=1;resizable=1;rotatable=1;deletable=1;editable=1;locked=0;connectable=1;" vertex="1" parent="EUlrfBxwxJydkilM9NxZ-22">
          <mxGeometry y="1" width="180" height="120" as="geometry" />
        </mxCell>
        <mxCell id="EUlrfBxwxJydkilM9NxZ-24" value="&amp;lt;&amp;lt;host: 5432&amp;gt;&amp;gt;" style="html=1;align=center;verticalAlign=middle;dashed=0;whiteSpace=wrap;rounded=1;movable=1;resizable=1;rotatable=1;deletable=1;editable=1;locked=0;connectable=1;" vertex="1" parent="EUlrfBxwxJydkilM9NxZ-22">
          <mxGeometry x="35" y="60" width="110" height="50" as="geometry" />
        </mxCell>
        <mxCell id="EUlrfBxwxJydkilM9NxZ-25" style="edgeStyle=orthogonalEdgeStyle;rounded=0;orthogonalLoop=1;jettySize=auto;html=1;endArrow=none;endFill=0;" edge="1" parent="1" source="EUlrfBxwxJydkilM9NxZ-12" target="EUlrfBxwxJydkilM9NxZ-20">
          <mxGeometry relative="1" as="geometry" />
        </mxCell>
        <mxCell id="EUlrfBxwxJydkilM9NxZ-26" style="edgeStyle=orthogonalEdgeStyle;rounded=0;orthogonalLoop=1;jettySize=auto;html=1;entryX=0;entryY=0;entryDx=65;entryDy=180;entryPerimeter=0;endArrow=none;endFill=0;" edge="1" parent="1" target="EUlrfBxwxJydkilM9NxZ-16">
          <mxGeometry relative="1" as="geometry">
            <mxPoint x="264" y="200" as="sourcePoint" />
            <Array as="points">
              <mxPoint x="260" y="200" />
              <mxPoint x="260" y="359" />
            </Array>
          </mxGeometry>
        </mxCell>
        <mxCell id="EUlrfBxwxJydkilM9NxZ-27" style="edgeStyle=orthogonalEdgeStyle;rounded=0;orthogonalLoop=1;jettySize=auto;html=1;entryX=0.875;entryY=1;entryDx=0;entryDy=0;entryPerimeter=0;exitX=0.233;exitY=-0.022;exitDx=0;exitDy=0;exitPerimeter=0;" edge="1" parent="1" source="EUlrfBxwxJydkilM9NxZ-16" target="EUlrfBxwxJydkilM9NxZ-20">
          <mxGeometry relative="1" as="geometry" />
        </mxCell>
        <mxCell id="EUlrfBxwxJydkilM9NxZ-28" value="Llamada REST /HTTP" style="edgeLabel;html=1;align=center;verticalAlign=middle;resizable=0;points=[];" vertex="1" connectable="0" parent="EUlrfBxwxJydkilM9NxZ-27">
          <mxGeometry x="0.0105" y="1" relative="1" as="geometry">
            <mxPoint x="-9" y="-21" as="offset" />
          </mxGeometry>
        </mxCell>
        <mxCell id="EUlrfBxwxJydkilM9NxZ-29" style="edgeStyle=orthogonalEdgeStyle;rounded=0;orthogonalLoop=1;jettySize=auto;html=1;entryX=0;entryY=0;entryDx=65;entryDy=180;entryPerimeter=0;" edge="1" parent="1" source="EUlrfBxwxJydkilM9NxZ-16" target="EUlrfBxwxJydkilM9NxZ-23">
          <mxGeometry relative="1" as="geometry" />
        </mxCell>
        <mxCell id="EUlrfBxwxJydkilM9NxZ-30" value="Acceso SQL" style="edgeLabel;html=1;align=center;verticalAlign=middle;resizable=0;points=[];" vertex="1" connectable="0" parent="EUlrfBxwxJydkilM9NxZ-29">
          <mxGeometry x="-0.22" y="3" relative="1" as="geometry">
            <mxPoint x="11" y="14" as="offset" />
          </mxGeometry>
        </mxCell>
        <mxCell id="EUlrfBxwxJydkilM9NxZ-32" style="edgeStyle=orthogonalEdgeStyle;rounded=0;orthogonalLoop=1;jettySize=auto;html=1;entryX=0;entryY=0;entryDx=0;entryDy=85;entryPerimeter=0;exitX=0;exitY=0;exitDx=120;exitDy=95;exitPerimeter=0;" edge="1" parent="1" source="EUlrfBxwxJydkilM9NxZ-20" target="EUlrfBxwxJydkilM9NxZ-23">
          <mxGeometry relative="1" as="geometry" />
        </mxCell>
        <mxCell id="EUlrfBxwxJydkilM9NxZ-33" value="Acceso SQL" style="edgeLabel;html=1;align=center;verticalAlign=middle;resizable=0;points=[];" vertex="1" connectable="0" parent="EUlrfBxwxJydkilM9NxZ-32">
          <mxGeometry x="0.0714" y="1" relative="1" as="geometry">
            <mxPoint as="offset" />
          </mxGeometry>
        </mxCell>
      </root>
    </mxGraphModel>
  </diagram>
</mxfile>
